<svg xmlns="http://www.w3.org/2000/svg" version="1.1" xmlns:xlink="http://www.w3.org/1999/xlink" xmlns:svgjs="http://svgjs.dev/svgjs" width="600px" height="2500px" viewBox="10 10 800 800" opacity="0.23"><defs><linearGradient x1="50%" y1="0%" x2="50%" y2="100%" id="ccchaos-grad"><stop stop-color="hsl(353, 98%, 41%)" stop-opacity="1" offset="0%"></stop><stop stop-color="hsl(30, 100%, 70%)" stop-opacity="1" offset="100%"></stop></linearGradient></defs><g stroke-width="4.5" stroke="url(#ccchaos-grad)" fill="none" stroke-linecap="round"><path d="M385.08 31.01Q392.83 37.32 400.67 44.08 408.63 51.25 416.72 58.78 424.97 66.6 433.41 74.63 442.04 82.78 450.9 90.95 460 99.04 469.36 106.94 478.98 114.55 488.88 121.78 499.06 128.56 509.54 134.82 520.3 140.52 531.35 145.65 542.69 150.19 554.3 154.19 566.18 157.68 578.31 160.74 590.67 163.46 603.24 165.95 616 168.32 628.92 170.7 641.97 173.22 655.13 176.01 668.35 179.18 681.61 182.84 694.87 187.08 708.1 191.98 721.25 197.56 734.29 203.85 739.72 214.64 744.06 225.44 747.13 236.23 748.83 247.02 749.08 257.81 747.89 268.61 745.29 279.4 741.38 290.19 736.31 300.98 730.26 311.78 723.46 322.57 716.16 333.36 708.63 344.15 701.16 354.95 694.01 365.74 687.45 376.53 681.73 387.32 677.06 398.12 673.61 408.91 671.51 419.7 670.83 430.49 671.61 441.28 673.81 452.08 677.35 462.87 682.11 473.66 687.89 484.45 694.5 495.24 701.68 506.04 709.17 516.83 716.69 527.62 723.89 545.72 716.61 558.05 709.1 564.33 701.26 571.86 693.08 580.57 684.56 590.36 675.69 601.07 666.47 612.52 656.92 624.48 647.03 636.71 636.83 648.95 626.32 660.94 615.52 672.43 604.45 683.17 593.14 692.96 581.6 701.62 569.87 709.01 557.97 715.05 545.92 719.71 533.77 723 521.53 725.01 509.23 725.84 496.92 725.69 484.6 724.76 472.32 723.31 460.09 721.59 447.94 719.9 435.9 718.53 423.98 717.74 412.21 717.81 400.61 718.95 389.17 721.34 381.64 714.38 374.1 708.9 358.84 702.89 343.36 700.62 327.31 702.57 310.84 705.53 302.33 706.91 293.65 707.8 284.8 707.96 275.78 707.17 266.59 705.25 257.22 702.08 247.7 697.58 238.01 691.72 228.18 684.52 218.21 676.07 208.11 666.49 197.9 655.95 187.6 644.65 177.21 632.83 166.75 620.74 156.25 608.62 145.71 596.74 135.16 585.33 124.6 574.62 114.06 564.79 103.55 556.01 93.08 548.37 92.08 537.59 90.99 526.81 89.87 516.03 88.76 505.24 87.69 494.46 86.7 483.68 85.84 472.9 85.13 462.12 84.6 451.34 84.27 440.56 84.16 429.78 84.26 419 84.57 408.21 85.09 397.43 85.78 386.65 86.64 375.87 87.61 365.09 88.68 354.31 89.79 343.53 90.91 332.75 92 321.97 93.02 311.18 93.92 300.4 94.67 289.62 95.26 278.84 95.64 268.06 95.82 257.28 95.78 246.5 95.53 235.71 95.07 224.93 98.78 206.7 112.52 195.73 121.8 192.7 130.96 190.06 140 187.69 148.93 185.44 157.75 183.19 166.47 180.81 175.1 178.17 183.66 175.17 192.14 171.7 200.58 167.71 208.98 163.15 217.36 157.97 225.73 152.2 234.13 145.84 242.56 138.95 251.05 131.6 259.62 123.85 268.27 115.81 277.05 107.59 285.95 99.29 295 91.02 304.21 82.88 313.6 74.98 323.18 67.39 332.96 60.18 342.95 53.4 353.16 47.1 363.58 41.27 379.65 33.46 385.08 31.01" stroke-dasharray="0 1" transform="rotate(0, 400, 400)" opacity="0.05"></path><path d="M380.67 48.27Q388.45 54.31 396.37 60.77 404.44 67.62 412.69 74.82 421.12 82.3 429.75 90.01 438.59 97.85 447.67 105.74 456.97 113.59 466.52 121.3 476.32 128.78 486.37 135.95 496.67 142.73 507.21 149.05 518 154.87 529.02 160.15 540.27 164.89 551.73 169.09 563.39 172.77 575.23 175.98 587.23 178.79 599.37 181.28 611.63 183.54 623.98 185.68 636.39 187.8 648.83 190.03 661.29 192.48 673.72 195.25 686.1 198.44 698.39 202.15 710.57 206.44 722.61 211.35 726.88 221.58 730.08 231.81 732.08 242.04 732.82 252.27 732.28 262.49 730.48 272.72 727.47 282.95 723.35 293.18 718.28 303.41 712.4 313.63 705.93 323.86 699.07 334.09 692.06 344.32 685.13 354.55 678.52 364.78 672.44 375 667.09 385.23 662.67 395.46 659.31 405.69 657.13 415.92 656.2 426.15 656.55 436.37 658.17 446.6 661.01 456.83 664.97 467.06 669.91 477.29 675.68 487.52 682.08 497.75 688.9 507.97 695.9 518.2 703.06 536.27 696.75 550.68 690 558.32 682.98 566.98 675.68 576.53 668.1 586.85 660.22 597.77 652.04 609.08 643.57 620.6 634.8 632.09 625.73 643.33 616.38 654.13 606.74 664.26 596.85 673.56 586.7 681.87 576.32 689.08 565.72 695.11 554.92 699.9 543.95 703.49 532.82 705.89 521.55 707.22 510.19 707.59 498.73 707.18 487.22 706.17 475.67 704.79 464.1 703.26 452.55 701.83 441.03 700.74 429.56 700.23 418.17 700.49 406.87 701.72 395.68 704.08 381.33 692.8 366.72 685.39 351.52 683.58 335.9 684.21 319.49 686.81 302.6 689.2 293.86 689.7 284.96 689.48 275.9 688.36 266.69 686.22 257.33 682.95 247.84 678.49 238.23 672.82 228.51 665.98 218.69 658.03 208.78 649.07 198.8 639.25 188.76 628.74 178.68 617.71 168.57 606.39 158.45 594.98 148.33 583.71 138.22 572.77 128.14 562.36 118.1 552.66 108.11 543.81 106.95 533.52 105.74 523.22 104.52 512.93 103.34 502.63 102.22 492.34 101.22 482.05 100.36 471.75 99.67 461.46 99.17 451.16 98.89 440.87 98.83 430.58 98.99 420.28 99.37 409.99 99.96 399.69 100.73 389.4 101.66 379.11 102.71 368.81 103.87 358.52 105.07 348.23 106.29 337.93 107.48 327.64 108.61 317.35 109.63 307.05 110.52 296.76 111.23 286.46 111.76 276.17 112.07 265.88 112.16 255.58 112.04 245.29 111.69 235 115.31 218.06 128.48 208.85 137.36 206.59 146.12 204.52 154.78 202.53 163.32 200.49 180.03 195.65 196.45 189.75 204.51 185.99 212.5 181.68 220.43 176.81 228.31 171.37 236.17 165.38 244.01 158.87 251.85 151.91 259.7 144.56 267.6 136.91 275.54 129.04 283.55 121.05 291.65 113.04 299.86 105.11 308.18 97.34 316.64 89.82 325.25 82.62 334.02 75.8 342.96 69.4 352.09 63.44 361.41 57.94 375.8 50.58 380.67 48.27" stroke-dasharray="5 7" transform="rotate(5.315789473684211, 400, 400)" opacity="0.10"></path><path d="M378.08 65.52Q385.98 71.28 394.03 77.43 402.26 83.96 410.67 90.82 419.27 97.96 428.07 105.32 437.07 112.83 446.29 120.42 455.72 128 465.36 135.49 475.22 142.81 485.28 149.87 495.55 156.61 506.02 162.96 516.67 168.87 527.51 174.3 538.51 179.23 549.65 183.64 560.94 187.55 572.33 190.98 583.83 193.97 595.4 196.58 607.02 198.88 618.68 200.94 630.34 202.87 641.98 204.76 653.58 206.7 665.12 208.81 676.56 211.17 687.88 213.89 699.07 217.04 710.08 220.68 713.24 230.39 715.36 240.09 716.39 249.8 716.3 259.5 715.09 269.21 712.79 278.91 709.47 288.62 705.24 298.32 700.22 308.03 694.57 317.73 688.44 327.44 682.03 337.14 675.53 346.85 669.14 356.55 663.04 366.26 657.42 375.96 652.44 385.67 648.27 395.37 645.02 405.08 642.79 414.78 641.65 424.49 641.63 434.19 642.74 443.9 644.93 453.6 648.15 463.31 652.29 473.01 657.24 482.72 662.84 492.42 668.93 502.13 675.32 511.83 682.15 529.82 676.55 545.87 670.44 554.47 664.12 563.81 657.59 573.76 650.82 584.16 643.82 594.85 636.56 605.65 629.06 616.39 621.3 626.87 613.28 636.92 605 646.38 596.47 655.1 587.69 662.95 578.67 669.83 569.43 675.67 559.96 680.44 550.28 684.14 540.41 686.78 530.37 688.44 520.16 689.22 509.81 689.24 499.33 688.65 488.75 687.62 478.08 686.35 467.34 685.03 456.56 683.86 445.75 683.04 434.92 682.77 424.11 683.21 413.32 684.52 402.58 686.83 388.64 676 374.32 668.6 359.3 666.24 343.82 666.2 327.56 668.3 310.82 670.54 302.19 671.25 293.41 671.44 284.5 670.95 275.46 669.65 266.31 667.43 257.04 664.2 247.68 659.93 238.23 654.59 228.72 648.22 219.14 640.86 209.51 632.61 199.85 623.56 190.17 613.87 180.49 603.67 170.8 593.14 161.14 582.47 151.5 571.82 141.89 561.37 132.34 551.29 122.84 541.75 121.56 531.91 120.26 522.08 118.98 512.25 117.76 502.41 116.64 492.58 115.65 482.75 114.82 472.92 114.18 463.08 113.74 453.25 113.52 443.42 113.52 433.58 113.75 423.75 114.2 413.92 114.85 404.09 115.68 394.25 116.68 384.42 117.8 374.59 119.02 364.75 120.3 354.92 121.6 345.09 122.89 335.26 124.11 325.42 125.24 315.59 126.25 305.76 127.09 295.93 127.76 286.09 128.22 276.26 128.46 266.43 128.48 256.6 128.27 246.76 131.88 230.95 144.51 223.06 161.34 219.44 177.86 215.57 193.84 210.33 209.52 203.84 217.19 199.73 224.78 195.1 232.3 189.93 239.75 184.25 247.15 178.08 254.5 171.48 261.83 164.51 269.14 157.22 276.44 149.71 283.77 142.06 291.11 134.35 298.51 126.67 305.96 119.11 313.49 111.73 321.11 104.62 328.83 97.83 336.67 91.4 344.64 85.38 352.76 79.78 361.03 74.61 373.77 67.69 378.08 65.52" stroke-dasharray="7 6" transform="rotate(10.631578947368421, 400, 400)" opacity="0.15"></path><path d="M377.57 82.78Q385.59 88.25 393.77 94.09 402.12 100.28 410.65 106.79 419.36 113.57 428.24 120.58 437.31 127.74 446.56 135 455.99 142.29 465.59 149.52 475.36 156.64 485.29 163.56 495.38 170.22 505.61 176.56 515.98 182.52 526.46 188.07 537.05 193.16 547.74 197.79 558.5 201.94 569.31 205.62 580.17 208.86 591.05 211.68 601.94 214.14 612.8 216.28 623.63 218.2 634.4 219.95 645.09 221.62 655.69 223.31 666.16 225.09 676.5 227.06 692.73 235.2 699.93 250.32 700.11 259.53 699.3 268.75 697.53 277.96 694.85 287.17 691.33 296.39 687.06 305.6 682.16 314.81 676.76 324.03 671.01 333.24 665.05 342.45 659.05 351.67 653.17 360.88 647.57 370.09 642.39 379.31 637.78 388.52 633.86 397.73 630.74 406.95 628.49 416.16 627.18 425.37 626.84 434.59 627.49 443.8 629.11 453.01 631.64 462.23 635.03 471.44 639.18 480.65 643.99 489.87 649.32 499.08 655.02 508.29 661.29 526.05 656.18 543.12 650.6 552.23 644.87 561.79 638.98 571.67 632.91 581.72 626.66 591.81 620.21 601.77 613.55 611.47 606.69 620.74 599.61 629.47 592.31 637.53 584.79 644.82 577.05 651.27 569.09 656.8 560.93 661.4 552.55 665.05 543.97 667.78 535.2 669.64 526.25 670.69 517.12 671.04 507.84 670.8 498.4 670.11 488.83 669.12 479.14 667.98 469.35 666.88 459.47 665.96 449.51 665.4 439.49 665.35 429.43 665.94 410.9 665.47 395.51 658.71 381.14 652.33 366.33 648.68 350.77 648.59 334.77 649.85 318.08 651.77 301.02 653.13 292.29 653.11 283.45 652.46 274.53 651.09 265.53 648.91 256.46 645.86 247.33 641.88 238.16 636.98 228.95 631.17 219.72 624.49 210.47 616.99 201.22 608.77 191.98 599.94 182.77 590.61 173.58 580.91 164.43 571 155.32 561.02 146.27 551.11 137.28 541.43 135.92 532.04 134.57 522.66 133.27 513.28 132.06 503.89 130.97 494.51 130.02 485.12 129.25 475.74 128.68 466.36 128.31 456.97 128.16 447.59 128.24 438.2 128.53 428.82 129.05 419.43 129.76 410.05 130.65 400.67 131.7 391.28 132.87 381.9 134.15 372.51 135.48 363.13 136.85 353.75 138.2 344.36 139.51 334.98 140.74 325.59 141.85 316.21 142.82 306.82 143.63 297.44 144.23 288.05 144.64 278.67 144.82 269.29 144.78 259.9 148.43 245.02 160.56 237.97 176.66 234.51 192.47 230.4 207.76 224.52 222.76 217.3 230.09 212.84 237.32 207.89 244.48 202.47 251.55 196.6 258.55 190.32 265.49 183.69 272.38 176.76 279.22 169.61 286.04 162.3 292.83 154.92 299.62 147.53 306.41 140.22 313.22 133.05 320.06 126.09 326.95 119.4 333.9 113.03 340.92 107.01 348.03 101.37 370.09 87.13 377.57 82.78" stroke-dasharray="4 3" transform="rotate(15.94736842105263, 400, 400)" opacity="0.20"></path><path d="M379.17 100.04Q387.27 105.22 395.51 110.74 403.91 116.59 412.46 122.74 421.17 129.15 430.02 135.78 439.02 142.57 448.16 149.48 457.43 156.44 466.84 163.38 476.37 170.26 486.01 176.99 495.76 183.52 505.6 189.8 515.52 195.78 525.51 201.4 535.55 206.63 545.64 211.44 555.75 215.83 565.87 219.77 575.99 223.29 586.08 226.38 596.14 229.09 606.15 231.44 616.09 233.5 625.94 235.3 635.69 236.92 645.32 238.42 654.82 239.89 664.17 241.39 678.44 248.27 683.81 262.29 683.26 271.03 681.86 279.77 679.66 288.52 676.71 297.26 673.07 306.01 668.84 314.75 664.12 323.49 659.01 332.24 653.64 340.98 648.13 349.73 642.63 358.47 637.24 367.21 632.12 375.96 627.37 384.7 623.11 393.45 619.45 402.19 616.46 410.93 614.22 419.68 612.61 437.16 613.53 454.65 615.44 463.4 618.13 472.14 621.53 480.88 625.56 489.63 630.11 498.37 635.1 507.11 640.63 524.43 635.8 541.83 630.66 550.96 625.41 560.28 620.06 569.68 614.57 579.02 608.96 588.19 603.19 597.06 597.27 605.53 591.18 613.48 584.92 620.83 578.48 627.49 564.97 638.12 550.9 646.33 535.91 650.57 520.39 652.71 504.02 652.17 487.2 650.69 478.54 649.72 469.75 648.83 460.85 648.16 451.85 647.83 442.76 647.98 433.58 648.71 416.29 648.42 401.29 642 386.9 635.61 372.1 631.64 356.63 630.95 340.79 631.6 324.38 633.23 307.68 634.67 290.57 634.51 273.28 632.75 264.55 630.71 255.79 627.92 247 624.34 238.2 619.95 229.4 614.77 220.6 608.81 211.82 602.13 203.07 594.78 194.34 586.85 185.66 578.42 177.02 569.6 168.43 560.51 159.9 551.26 151.44 541.97 150.04 533.03 148.68 524.1 147.41 515.16 146.24 506.23 145.21 497.29 144.34 488.36 143.65 479.42 143.16 470.48 142.88 461.55 142.82 452.61 142.97 443.68 143.34 434.74 143.91 425.81 144.68 416.87 145.62 407.93 146.71 399 147.92 390.06 149.23 381.13 150.61 372.19 152.02 363.26 153.43 354.32 154.8 345.38 156.11 336.45 157.32 327.51 158.4 318.58 159.33 309.64 160.09 300.7 160.65 291.77 161.01 282.83 161.15 273.9 164.89 259.8 176.54 253.13 191.93 249.35 207.05 244.65 221.7 238 236.06 230.01 249.94 219.8 263.56 208.39 270.23 202.07 276.81 195.48 283.33 188.67 289.79 181.72 296.19 174.67 302.55 167.61 308.87 160.59 315.17 153.68 321.45 146.94 327.73 140.42 340.33 128.39 353.02 117.36 372.57 104.1 379.17 100.04" stroke-dasharray="8 6" transform="rotate(21.263157894736842, 400, 400)" opacity="0.25"></path><path d="M382.74 117.3Q399.01 127.38 415.78 138.66 433.01 150.92 450.66 163.86 468.69 177.09 487.02 190.18 505.58 202.71 524.28 214.27 543.03 224.55 561.73 233.33 580.27 240.53 598.56 246.18 616.49 250.49 633.97 253.78 650.89 256.48 667.2 259.06 667.05 275.63 664.03 292.2 658.4 308.77 650.6 325.34 641.31 341.91 631.28 358.48 621.35 375.04 612.35 391.61 605.02 408.18 599.98 424.75 597.64 441.32 598.19 457.89 601.6 474.45 607.57 491.02 615.62 507.59 625.07 524.16 615.6 541.24 605.95 558.63 596.03 575.53 585.74 591.18 575 604.91 563.75 616.2 551.93 624.76 539.52 630.51 526.48 633.63 512.83 634.54 498.56 633.86 483.71 632.36 468.32 630.89 452.43 630.33 436.1 631.5 419.41 635.05 405.59 625.32 391.27 618.62 376.46 614.75 361.22 613.28 345.58 613.55 329.61 614.79 313.35 616.13 296.89 616.73 280.29 615.83 263.61 612.8 246.92 607.22 230.29 598.89 213.77 587.87 197.42 574.44 181.27 559.07 165.36 542.43 162.66 525.48 160.36 508.52 158.65 491.57 157.68 474.62 157.52 457.67 158.19 440.72 159.63 423.77 161.73 406.82 164.3 389.87 167.14 372.92 170 355.97 172.66 339.01 174.89 322.06 176.5 305.11 177.36 288.16 177.4 271.21 192.39 268.02 207.11 263.75 221.51 258.07 235.57 250.79 249.28 241.87 262.63 231.41 275.63 219.63 288.28 206.89 300.62 193.58 312.69 180.17 324.54 167.08 336.23 154.73 347.81 143.42 359.38 133.36 376.87 120.98 382.74 117.3" stroke-dasharray="5 4" transform="rotate(26.57894736842105, 400, 400)" opacity="0.30"></path><path d="M387.94 134.56Q403.87 144.01 420.15 154.56 436.74 166.03 453.6 178.17 470.67 190.66 487.88 203.15 505.17 215.28 522.44 226.7 539.64 237.09 556.67 246.23 573.46 253.97 589.92 260.27 605.99 265.21 621.59 268.98 636.66 271.85 651.15 274.19 649.69 289.83 645.87 305.48 639.95 321.12 632.37 336.77 623.67 352.41 614.5 368.06 605.5 383.71 597.33 399.35 590.59 415 585.77 430.64 583.2 446.29 583.09 461.93 585.43 477.58 590.06 493.23 596.64 508.87 604.7 524.52 595.71 540.56 586.66 556.2 577.48 570.8 568.09 583.85 558.4 594.89 548.36 603.65 537.91 610.01 527 614.03 515.61 615.98 503.72 616.26 491.3 615.43 478.38 614.13 464.95 613.06 451.05 612.91 436.7 614.31 421.95 617.79 408.12 608.64 393.88 602.09 379.27 598 364.34 596.04 349.12 595.73 333.69 596.48 318.08 597.61 302.37 598.43 286.62 598.31 270.86 596.66 255.17 593.06 239.59 587.21 224.15 579.01 208.9 568.53 193.87 556.02 179.08 541.87 176.53 525.88 174.44 509.89 172.97 493.9 172.23 477.91 172.27 461.92 173.08 445.93 174.61 429.95 176.75 413.96 179.34 397.97 182.19 381.98 185.1 365.99 187.86 350 190.27 334.01 192.14 318.03 193.36 302.04 193.82 286.05 208.04 282.16 222.03 277.01 235.76 270.42 249.2 262.35 262.32 252.86 275.11 242.11 287.57 230.36 299.69 217.96 311.5 205.25 323.01 192.63 334.24 180.45 345.25 169.03 356.06 158.62 366.75 149.38 382.65 137.96 387.94 134.56" stroke-dasharray="6 7" transform="rotate(31.89473684210526, 400, 400)" opacity="0.35"></path><path d="M394.28 151.81Q409.55 160.62 425.04 170.42 440.7 181.08 456.48 192.38 472.33 204.09 488.19 215.9 504 227.52 519.69 238.65 535.22 249.02 550.51 258.38 565.51 266.57 580.16 273.5 594.4 279.15 608.2 283.59 621.51 286.99 634.3 289.57 631.81 304.27 627.42 318.97 621.41 333.67 614.16 348.36 606.11 363.06 597.78 377.76 589.68 392.46 582.31 407.16 576.15 421.86 571.57 436.55 568.86 451.25 568.2 465.95 569.61 480.65 573.02 495.35 578.21 510.05 584.86 524.75 576.27 539.03 567.72 552.42 559.15 564.49 550.47 574.9 541.64 583.41 532.6 589.89 523.28 594.37 513.65 597 503.66 598.06 493.29 597.92 482.52 597.07 471.33 596.03 459.72 595.35 447.69 595.57 435.24 597.16 422.41 600.54 408.73 591.99 394.75 585.64 380.52 581.39 366.07 579.02 351.46 578.17 336.74 578.4 321.94 579.2 307.13 580.02 292.35 580.35 277.63 579.69 263.02 577.63 248.56 573.84 234.27 568.14 220.18 560.45 206.3 550.84 192.66 539.49 190.33 524.52 188.52 509.55 187.32 494.57 186.83 479.6 187.06 464.63 188.01 449.66 189.61 434.69 191.77 419.71 194.35 404.74 197.18 389.77 200.1 374.8 202.92 359.83 205.46 344.85 207.56 329.88 209.1 314.91 209.97 299.94 223.41 295.1 236.66 288.99 249.7 281.54 262.49 272.82 275.02 262.95 287.26 252.13 299.2 240.62 310.83 228.72 322.16 216.75 333.19 205.01 343.93 193.79 354.41 183.33 364.65 173.83 374.68 165.39 389.41 154.94 394.28 151.81" stroke-dasharray="5 2" transform="rotate(37.21052631578947, 400, 400)" opacity="0.40"></path><path d="M401.16 169.07Q415.48 177.23 429.88 186.28 444.34 196.1 458.8 206.54 473.23 217.4 487.56 228.46 501.77 239.47 515.8 250.18 529.6 260.35 543.13 269.77 556.36 278.27 569.24 285.72 581.74 292.05 593.83 297.25 605.5 301.38 616.71 304.57 613.46 318.28 608.74 331.99 602.81 345.7 595.98 359.41 588.62 373.13 581.12 386.84 573.88 400.55 567.29 414.26 561.69 427.97 557.39 441.68 554.62 455.39 553.51 469.1 554.14 482.81 556.47 496.52 560.37 510.23 565.64 523.94 557.41 535.98 549.28 546.87 541.21 556.35 533.13 564.25 524.99 570.47 516.75 575.01 508.36 577.97 499.77 579.52 490.95 579.95 481.88 579.58 472.51 578.82 462.83 578.07 452.82 577.75 442.47 578.29 431.78 580.03 420.75 583.28 407.44 575.34 393.94 569.24 380.3 564.91 366.56 562.21 352.74 560.88 338.9 560.59 325.08 560.98 311.3 561.63 297.6 562.14 284.02 562.09 270.58 561.13 257.3 558.95 244.21 555.32 231.31 550.08 218.62 543.2 206.15 534.69 204.13 520.79 202.63 506.9 201.73 493 201.49 479.1 201.91 465.21 202.98 451.31 204.64 437.41 206.79 423.52 209.33 409.62 212.11 395.72 215 381.83 217.83 367.93 220.45 354.03 222.74 340.14 224.55 326.24 225.8 312.34 238.43 306.49 250.92 299.48 263.24 291.34 275.36 282.19 287.27 272.19 298.94 261.53 310.35 250.47 321.5 239.25 332.37 228.13 342.97 217.35 353.29 207.13 363.34 197.66 373.13 189.06 382.68 181.43 396.59 171.92 401.16 169.07" stroke-dasharray="6 2" transform="rotate(42.526315789473685, 400, 400)" opacity="0.45"></path><path d="M407.93 186.33Q421.03 193.84 434.12 202.12 447.17 211.1 460.14 220.65 473 230.63 485.71 240.85 498.25 251.14 510.57 261.29 522.66 271.11 534.47 280.41 545.99 289.03 557.19 296.83 568.05 303.71 578.56 309.63 588.7 314.56 598.48 318.55 594.73 331.23 589.9 343.9 584.19 356.57 577.88 369.25 571.23 381.92 564.55 394.59 558.13 407.26 552.27 419.94 547.23 432.61 543.23 445.28 540.45 457.95 539.02 470.62 539 483.3 540.39 495.97 543.13 508.64 547.1 521.31 539.22 530.87 531.47 539.23 523.83 546.27 516.25 551.92 501.07 558.55 485.72 561.7 469.74 561.21 453.22 560.25 444.58 560.28 435.69 561.08 426.55 562.92 417.14 566.02 404.44 558.7 391.67 552.89 378.85 548.57 366.01 545.61 353.18 543.86 340.39 543.09 327.67 543.03 315.05 543.38 302.55 543.83 290.18 544.08 277.97 543.82 265.93 542.78 254.07 540.74 242.4 537.51 230.92 532.99 219.63 527.1 217.96 514.34 216.81 501.57 216.22 488.81 216.23 476.04 216.83 463.28 218 450.51 219.69 437.75 221.81 424.98 224.28 412.22 226.98 399.45 229.79 386.68 232.59 373.92 235.25 361.15 237.66 348.39 239.69 335.62 241.27 322.85 253.05 316.11 264.74 308.4 276.29 299.83 287.71 290.54 298.95 280.67 310.01 270.43 320.86 260.01 331.5 249.62 341.9 239.45 352.06 229.69 361.98 220.51 371.65 212.02 381.07 204.33 390.25 197.48 403.57 188.91 407.93 186.33" stroke-dasharray="8 6" transform="rotate(47.84210526315789, 400, 400)" opacity="0.50"></path><path d="M413.95 203.59Q425.63 210.44 437.24 217.95 448.75 226.07 460.13 234.71 471.36 243.76 482.42 253.1 493.28 262.58 503.93 272.04 514.35 281.34 524.52 290.32 534.43 298.84 544.06 306.77 553.41 314.02 562.47 320.5 573.47 334.36 570.95 354.14 565.6 365.72 559.85 377.31 553.92 388.89 548.04 400.47 542.41 412.05 537.25 423.64 532.75 435.22 529.07 446.8 526.35 458.38 524.7 469.96 524.16 481.55 524.78 493.13 526.51 504.71 529.3 516.29 521.77 523.38 514.4 529.38 500.05 537.48 485.91 542.46 471.81 543.45 457.58 543.12 442.88 542.83 427.76 543.94 419.92 545.83 411.9 548.76 400.08 542.07 388.27 536.6 376.48 532.35 364.73 529.23 353.05 527.15 341.46 525.94 329.96 525.42 318.59 525.4 307.36 525.63 296.27 525.91 285.33 525.99 274.56 525.65 263.96 524.71 253.53 522.99 243.27 520.34 233.18 516.67 231.89 505.08 231.1 493.49 230.82 481.91 231.06 470.32 231.82 458.73 233.07 447.14 234.76 435.55 236.83 423.97 239.2 412.38 241.79 400.79 244.49 389.2 247.22 377.61 249.86 366.03 252.32 354.44 254.5 342.85 256.34 331.26 267.24 323.87 278.07 315.78 288.81 307.11 299.46 297.97 309.98 288.52 320.37 278.92 330.6 269.32 340.67 259.89 350.55 250.76 360.24 242.07 369.72 233.93 379 226.43 388.06 219.63 396.91 213.56 409.74 205.91 413.95 203.59" stroke-dasharray="7 6" transform="rotate(53.1578947368421, 400, 400)" opacity="0.55"></path><path d="M418.65 220.85Q428.8 227.02 438.84 233.76 448.74 241.02 458.51 248.74 468.12 256.84 477.55 265.24 486.8 273.82 495.86 282.48 504.71 291.1 513.35 299.56 521.77 307.76 529.97 315.58 537.94 322.94 545.68 329.73 554.84 343.89 551.95 362.31 547.05 372.76 541.93 383.2 536.72 393.65 531.61 404.09 526.73 414.54 522.23 424.98 518.25 435.43 514.91 445.88 512.31 456.32 510.53 466.77 509.62 477.21 509.6 487.66 507.8 505.75 498.15 517.36 484.64 522.36 471.41 525.17 458.44 525.46 445.51 525.11 432.45 525.34 419.2 526.88 412.42 528.78 405.54 531.51 394.83 525.46 384.18 520.38 373.6 516.26 363.09 513.08 352.69 510.74 342.39 509.16 332.21 508.22 322.16 507.79 312.24 507.7 302.47 507.81 292.83 507.94 283.34 507.94 274 507.64 264.81 506.9 250.87 499.41 245.54 482.84 245.54 472.46 246 462.08 246.89 451.7 248.19 441.33 249.86 430.95 251.85 420.57 254.1 410.19 256.54 399.81 259.1 389.43 261.7 379.05 264.26 368.67 266.72 358.3 268.98 347.92 270.99 337.54 280.95 329.88 290.88 321.77 300.76 313.33 310.57 304.67 320.3 295.9 329.94 287.15 339.48 278.53 348.89 270.15 358.17 262.12 367.31 254.52 376.3 247.43 385.12 240.9 393.77 234.97 402.25 229.66 414.6 222.9 418.65 220.85" stroke-dasharray="7 4" transform="rotate(58.473684210526315, 400, 400)" opacity="0.60"></path><path d="M421.59 238.11Q430.17 243.61 438.63 249.57 446.96 255.97 455.15 262.76 463.2 269.9 471.1 277.31 478.84 284.93 486.41 292.68 493.82 300.49 501.06 308.26 508.13 315.91 515.03 323.36 521.76 330.54 528.33 337.36 535.92 351.37 532.96 368.24 528.59 377.51 524.11 386.78 519.63 396.05 515.25 405.32 511.08 414.59 507.21 423.86 503.74 433.13 500.76 442.4 498.33 451.67 496.5 460.94 495.33 470.21 494.84 479.48 492.16 494.88 482.76 503.37 470.13 506.1 457.8 507.46 445.84 507.46 434.02 507.3 422.29 508 410.54 509.88 396.93 510.29 379.89 504.19 370.64 500.29 361.49 497.12 352.44 494.63 343.51 492.77 326.04 490.83 308.94 490 292.46 489.96 276.34 489.73 264.38 484.22 260.16 470.05 260.42 460.9 261.06 451.74 262.05 442.59 263.37 433.44 264.99 424.28 266.87 415.13 268.97 405.98 271.24 396.83 273.61 387.67 276.05 378.52 278.48 369.37 280.85 360.22 283.11 351.06 285.2 341.91 294.18 334.39 303.15 326.66 312.1 318.8 321.01 310.89 329.88 303.03 338.69 295.29 347.44 287.76 356.1 280.51 364.69 273.6 373.17 267.1 381.55 261.04 389.82 255.46 397.96 250.37 405.98 245.79 417.72 239.91 421.59 238.11" stroke-dasharray="1 8" transform="rotate(63.78947368421052, 400, 400)" opacity="0.65"></path><path d="M422.49 255.37Q436.49 265.38 450.05 276.78 463.13 289.34 475.72 302.72 487.82 316.51 499.43 330.26 510.56 343.5 521.25 355.81 514.03 371.94 506.42 388.08 498.96 404.22 492.19 420.36 486.6 436.5 482.6 452.64 480.47 468.78 480.38 484.93 468.24 487.76 456.54 489.15 445.22 489.57 434.21 489.57 423.44 489.74 412.85 490.69 402.36 492.95 391.9 496.99 375.93 488.06 360.33 481.37 345.11 476.79 330.3 474.04 315.88 472.69 301.86 472.22 288.22 472.06 274.94 471.61 275 455.76 276.25 439.9 278.6 424.05 281.89 408.19 285.88 392.34 290.27 376.49 294.74 360.63 298.99 344.78 314.9 330.8 330.79 316.89 346.61 303.5 362.29 291.03 377.77 279.83 393 270.1 415.21 258.66 422.49 255.37" stroke-dasharray="3 7" transform="rotate(69.10526315789474, 400, 400)" opacity="0.70"></path><path d="M421.26 272.63Q432.46 281.18 443.32 290.82 453.83 301.38 463.99 312.69 473.82 324.49 483.33 336.5 492.53 348.42 501.45 359.96 495.22 373.68 488.87 387.4 482.75 401.13 477.17 414.85 472.43 428.57 468.79 442.3 466.44 456.02 465.51 469.74 454.59 470.99 444.02 471.55 433.76 471.73 423.78 471.92 414.05 472.47 404.52 473.75 395.15 476.08 385.9 479.73 372.79 471.96 359.99 465.82 347.5 461.23 335.32 458.06 323.44 456.07 311.86 454.98 295.32 447.61 291.58 427.31 293.9 413.88 296.91 400.44 300.46 387.01 304.36 373.58 308.4 360.14 312.37 346.71 326.14 334.64 339.94 322.96 353.74 311.94 367.49 301.82 381.16 292.75 394.7 284.84 414.67 275.39 421.26 272.63" stroke-dasharray="8 2" transform="rotate(74.42105263157895, 400, 400)" opacity="0.75"></path><path d="M418.03 289.89Q426.72 296.99 435.19 304.88 443.43 313.48 451.47 322.68 459.29 332.35 466.93 342.34 474.39 352.47 481.7 362.58 476.57 373.9 471.48 385.22 466.61 396.54 462.15 407.86 458.25 419.18 455.07 430.5 447.24 447.71 432.5 453.88 423.46 454.15 414.65 454.63 397.7 457.4 381.24 462.46 370.9 455.91 360.79 450.46 350.9 446.08 341.23 442.72 331.76 440.27 322.49 438.6 309.42 431.68 307.07 414.77 309.25 403.71 311.93 392.65 315 381.58 318.35 370.52 321.85 359.46 325.37 348.39 336.92 338.65 348.52 329.42 360.16 320.81 371.8 312.95 383.44 305.9 395.03 299.71 412.3 292.13 418.03 289.89" stroke-dasharray="1 5" transform="rotate(79.73684210526316, 400, 400)" opacity="0.80"></path><path d="M413.09 307.14Q419.6 312.8 426 318.98 432.27 325.66 438.42 332.77 444.48 340.27 450.43 348.07 457.21 364.67 454.25 382.18 450.55 391.13 447.13 400.08 444.06 409.03 441.41 417.98 434.48 431.56 421.93 436.53 406.91 437.97 392.34 440.47 377.94 441.23 362.99 435.29 348.23 428.38 333.83 423.34 323.97 416.8 322.71 403.08 324.68 394.33 326.95 385.57 329.49 376.82 332.24 368.06 335.11 359.31 338.06 350.55 347.32 343.32 356.64 336.54 366 330.25 375.39 324.5 384.81 319.31 394.24 314.69 408.38 308.89 413.09 307.14" stroke-dasharray="9 1" transform="rotate(85.05263157894737, 400, 400)" opacity="0.85"></path><path d="M406.91 324.4Q416.14 333.15 425.17 343.08 434.03 354.03 442.75 365.77 437.18 379.04 432.11 392.31 427.8 405.57 424.49 418.84 412.22 419.83 400.31 421.49 388.75 424.11 377.51 427.95 366.73 420.28 356.22 414.11 345.95 409.39 335.88 405.97 338.53 392.96 341.97 379.94 346.03 366.92 350.49 353.9 364.4 344.59 378.46 336.55 399.78 327.11 406.91 324.4" stroke-dasharray="2 8" transform="rotate(90.36842105263158, 400, 400)" opacity="0.90"></path><path d="M400.08 341.66Q406.07 347.4 412 353.7 419.09 368.52 417.09 385.28 408.74 399.05 394.96 405.75 379.43 406.69 365.42 400.83 356.69 390.89 357 376.29 359.76 367.66 362.73 359.03 371.94 353.79 381.24 349.15 395.35 343.39 400.08 341.66" stroke-dasharray="5 8" transform="rotate(95.68421052631578, 400, 400)" opacity="0.95"></path></g></svg>