<svg xmlns="http://www.w3.org/2000/svg" version="1.1" xmlns:xlink="http://www.w3.org/1999/xlink" xmlns:svgjs="http://svgjs.dev/svgjs" viewBox="100 100 800 800" width="1300px" height="2500px" opacity="0.19"><defs><linearGradient x1="50%" y1="0%" x2="90%" y2="100%" id="ccchaos-grad"><stop stop-color="hsl(30, 88%, 45%)" stop-opacity="1" offset="0%"></stop><stop stop-color="hsl(0, 92%, 41%)" stop-opacity="1" offset="100%"></stop></linearGradient></defs><g stroke-width="2" stroke="url(#ccchaos-grad)" fill="none" stroke-linecap="round"><path d="M360.12 91.37C364.36 82.21 371.84 75.59 378.88 72.71 385.91 69.78 392.47 70.76 395.41 76.96Q399.62 84.72 404.46 92.58 409.94 100.6 416.05 108.8 422.77 117.25 430.07 125.97 437.87 135.02 446.11 144.4 454.71 154.15 463.56 164.27 472.57 174.77 481.61 185.65 490.58 196.88 499.35 208.45 507.82 220.32 515.88 232.44 523.43 244.77 530.39 257.24 536.69 269.81 542.27 282.39 547.09 294.92 551.15 307.33 554.45 319.54 557 331.5 558.87 343.13 560.12 354.38 560.82 365.2 561.09 375.55 561.02 385.38 560.76 394.69 560.25 411.44 560.34 426.66 562.71 439.67 567.09 451.69 575.55 462.84 586.68 473.99 593.77 479.8 601.69 485.89 610.35 492.34 619.66 499.25 629.5 506.67 639.76 514.68 650.28 523.31 660.91 532.62 671.51 542.62 681.91 553.32 691.95 564.71 701.5 576.77 710.41 589.45 718.57 602.69 725.87 616.44 732.23 630.6 737.6 645.07 741.96 659.77 745.28 674.57 747.61 689.35 748.99 704.01 749.5 718.42C749.39 728.58 744.24 735.55 737.04 738.11 729.73 740.37 720.65 737.53 712.85 728.64Q703.23 717.7 693.61 707.67 683.99 699.44 674.37 693.71 664.75 691 655.13 691.53 645.51 695.28 635.89 701.89 626.27 710.81 616.65 721.24 607.03 732.27 597.41 742.94 587.79 752.31 578.17 759.56 568.55 764.06 558.93 765.41 549.31 763.49 539.69 758.47 530.07 750.8 520.46 741.13 510.84 730.33 501.22 719.33 491.6 709.11 481.98 700.54 472.36 694.4 462.74 691.2 453.12 691.24 443.5 694.51 433.88 700.72 424.26 709.33 414.64 719.59 405.02 730.59 395.4 741.38 385.78 751 376.16 758.62 366.54 763.57 356.92 765.41 347.3 763.99 337.68 759.42 328.06 752.11 318.44 742.7 308.82 732.01 299.2 720.98 289.58 710.58 279.96 701.71 270.34 695.15 260.73 691.48 251.11 691.02 241.49 693.81 231.87 699.6 222.25 707.9 212.63 717.96 203.01 728.91 193.39 739.79 183.77 749.65 174.15 757.62 164.53 763.01 154.91 765.34 145.29 764.41 135.67 760.31 126.05 753.38 116.43 744.24 106.81 733.68 97.19 722.64C89.38 713.99 83.29 703.48 80.13 694.51 76.91 685.88 76.63 677.95 80.62 673.98Q91.57 664.13 102.25 654.98 112.21 645.83 121.62 636 130.02 624.11 137.81 610.52 141.39 602.61 144.83 594.02 148.16 584.73 151.41 574.76 154.63 564.13 157.86 552.88 161.15 541.05 164.54 528.73 168.08 515.96 171.81 502.85 175.77 489.47 179.99 475.91 184.51 462.27 189.34 448.65 194.49 435.12 199.96 421.78 205.75 408.71 211.85 395.97 218.21 383.63 224.82 371.74 231.62 360.33 238.57 349.44 245.61 339.08 252.67 329.24 259.69 319.92 266.61 311.1 273.37 302.75 279.9 294.81 286.14 287.25 292.04 280 302.45 266.22 311.57 252.78 318.49 239.22 324.21 225.19 328.36 209.9 331.94 193.62 333.6 184.85 335.31 175.71 337.15 166.21 339.22 156.34 341.58 146.15 344.32 135.64 347.5 124.87 351.16 113.88 357.74 97.03 360.12 91.37" stroke-dasharray="2 2" transform="rotate(0, 400, 400)" opacity="0.05"></path><path d="M360.56 103.58C364.06 94.71 370.96 88.24 377.71 85.36 384.45 82.44 391.05 83.27 394.48 89.18Q399.28 96.57 404.66 104.05 410.62 111.67 417.12 119.46 424.15 127.47 431.63 135.74 439.52 144.3 447.72 153.17 456.17 162.39 464.76 171.95 473.4 181.88 481.99 192.16 490.43 202.8 498.61 213.77 506.44 225.04 513.84 236.58 520.72 248.35 527.02 260.31 532.68 272.39 537.67 284.55 541.96 296.72 545.55 308.83 548.46 320.83 550.7 332.64 552.33 344.21 553.42 355.48 554.03 366.39 554.26 376.91 554.21 386.98 553.99 396.58 553.62 414.03 553.81 429.98 556.05 443.6 560.11 456.02 567.85 467.04 578.01 477.65 584.52 482.91 591.79 488.27 599.77 493.83 608.39 499.66 617.55 505.84 627.16 512.45 637.08 519.55 647.2 527.19 657.37 535.43 667.47 544.29 677.34 553.81 686.86 563.98 695.9 574.8 704.35 586.25 712.09 598.3 719.04 610.9 725.13 624 730.31 637.51 734.56 651.37 737.87 665.48 740.26 679.74 741.77 694.05C742.53 714.51 723.89 719.61 708.72 702.82Q699.37 693.59 690.02 686.13 680.67 681.06 671.32 678.77 661.98 679.46 652.63 683.07 643.28 689.31 633.93 697.67 624.58 707.47 615.23 717.93 605.88 728.18 596.54 737.41 587.19 744.86 577.84 749.94 568.49 752.22 559.14 751.53 549.79 747.91 540.44 741.67 531.09 733.31 521.75 723.51 512.4 713.06 503.05 702.8 493.7 693.57 484.35 686.12 475 681.05 465.65 678.77 456.3 679.47 446.96 683.08 437.61 689.32 428.26 697.68 418.91 707.49 409.56 717.94 400.21 728.2 390.86 737.42 381.51 744.87 372.17 749.94 362.82 752.22 353.47 751.52 344.12 747.91 334.77 741.66 325.42 733.3 316.07 723.49 306.72 713.04 297.38 702.79 288.03 693.56 278.68 686.11 269.33 681.05 259.98 678.77 250.63 679.47 241.28 683.09 231.93 689.33 222.58 697.7 213.24 707.5 203.89 717.96 194.54 728.21 185.19 737.44 175.84 744.88 166.49 749.95 157.14 752.22 147.79 751.52 138.44 747.9 129.1 741.65 119.75 733.28 110.4 723.48C95.23 706.56 86.55 681.07 94.24 674.65Q104.63 666.16 114.66 657.51 123.88 647.6 132.52 636.43 140.19 622.54 147.31 606.79 150.59 597.78 153.77 588.13 156.86 577.87 159.91 567.02 162.95 555.63 166.03 543.77 169.19 531.48 172.47 518.86 175.91 505.97 179.55 492.9 183.42 479.72 187.56 466.54 191.98 453.42 196.7 440.45 201.72 427.69 207.06 415.23 212.69 403.11 218.61 391.39 224.78 380.11 231.19 369.29 237.77 358.97 244.5 349.15 251.31 339.83 258.16 330.99 264.98 322.62 271.71 314.68 278.3 307.13 284.7 299.93 296.5 286.42 307.28 273.44 316.07 260.7 323.6 247.73 329.16 233.85 333.73 219.17 337.16 202.88 340.31 185.53 341.9 176.24 343.62 166.63 345.55 156.7 347.75 146.5 350.3 136.04 353.25 125.38 358.61 109.06 360.56 103.58" stroke-dasharray="5 9" transform="rotate(4.04, 400, 400)" opacity="0.09"></path><path d="M361.91 115.76C367.88 98.6 387.1 90.19 394.53 101.41Q399.85 108.44 405.68 115.54 412.01 122.77 418.79 130.15 425.99 137.73 433.55 145.55 441.39 153.63 449.45 162.01 457.64 170.69 465.88 179.71 474.09 189.06 482.16 198.75 490.02 208.79 497.58 219.14 504.76 229.8 511.5 240.74 517.72 251.93 523.38 263.33 528.44 274.89 532.88 286.57 536.67 298.31 539.84 310.06 542.38 321.76 544.34 333.35 545.76 344.77 546.7 355.97 547.23 366.9 547.44 377.5 547.41 387.73 547.24 397.56 546.99 415.66 547.27 432.35 549.39 446.71 553.14 459.78 560.2 471.08 569.46 481.64 582.38 491.61 597.3 501.67 605.78 506.94 614.72 512.46 624.02 518.32 633.57 524.56 643.26 531.26 652.97 538.45 662.57 546.2 671.95 554.52 680.99 563.45 689.58 572.99 697.61 583.14 705 593.9 711.67 605.23 717.56 617.1 722.62 629.46 726.83 642.25 730.18 655.41 732.69 668.87C734.88 688.57 718.31 693.1 703.62 678.99Q694.56 672.46 685.5 668.2 676.44 666.53 667.37 667.58 658.31 671.27 649.25 677.32 640.19 685.27 631.13 694.55 622.07 704.44 613.01 714.22 603.95 723.15 594.88 730.56 585.82 735.91 576.76 738.79 567.7 738.98 558.64 736.48 549.58 731.47 540.52 724.31 531.46 715.56 522.39 705.86 513.33 695.94 504.27 686.53 495.21 678.35 486.15 672 477.09 667.95 468.03 666.52 458.97 667.8 449.9 671.7 440.84 677.93 431.78 686.03 422.72 695.38 413.66 705.29 404.6 715.03 395.54 723.85 386.48 731.11 377.42 736.26 368.35 738.91 359.29 738.87 350.23 736.14 341.17 730.93 332.11 723.62 323.05 714.76 313.99 705.01 304.93 695.1 295.87 685.78 286.8 677.73 277.74 671.56 268.68 667.73 259.62 666.52 250.56 668.03 241.5 672.15 232.44 678.56 223.38 686.79 214.32 696.22 205.26 706.15 196.19 715.83 187.13 724.54 178.07 731.64 169.01 736.59 159.95 739.01 150.89 738.74 141.83 735.79 132.77 730.38 123.71 722.91C109.01 707.91 100.53 682.54 107.85 676.8Q117.59 668.2 126.89 658.74 135.33 647.15 143.2 633.96 146.81 626.35 150.24 618.13 153.51 609.3 156.64 599.88 159.66 589.89 162.6 579.36 165.48 568.33 168.34 556.85 171.23 544.99 174.18 532.81 177.23 520.39 180.41 507.78 183.76 495.07 187.32 482.34 191.11 469.66 195.16 457.1 199.48 444.73 204.09 432.6 208.99 420.79 214.18 409.33 219.65 398.27 225.39 387.64 231.37 377.46 237.56 367.75 243.92 358.51 250.42 349.73 257.01 341.4 263.63 333.51 270.24 326.01 276.78 318.87 283.2 312.05 289.45 305.49 301.07 293.04 311.78 280.89 320.67 268.7 328.37 256.16 334.16 242.59 338.94 228.21 342.43 212.24 345.48 195.27 346.9 186.21 348.37 176.85 349.96 167.2 351.73 157.29 353.76 147.16 356.09 136.84 360.36 121.06 361.91 115.76" stroke-dasharray="6 7" transform="rotate(8.08, 400, 400)" opacity="0.13"></path><path d="M364.16 127.93C368.86 111.38 387.31 103.02 395.55 113.68Q401.28 120.34 407.45 127.07 414.03 133.92 420.97 140.9 428.22 148.06 435.72 155.44 443.41 163.05 451.21 170.93 459.06 179.09 466.87 187.56 474.57 196.35 482.09 205.45 489.34 214.88 496.26 224.62 502.79 234.66 508.87 244.98 514.45 255.57 519.5 266.37 523.99 277.37 527.91 288.52 531.24 299.78 534.01 311.1 536.22 322.42 537.92 333.71 539.15 344.89 539.97 355.93 540.43 366.78 540.62 377.38 540.61 387.69 540.49 397.66 540.35 407.27 540.28 416.49 540.88 433.41 542.49 449.02 546.49 462.46 552.28 474.71 561.37 485.35 572.47 495.31 579.15 500.04 586.42 504.72 594.23 509.43 602.49 514.22 611.15 519.18 620.09 524.36 629.24 529.83 638.49 535.65 647.73 541.88 656.86 548.56 665.78 555.73 674.37 563.43 682.56 571.69 690.23 580.51 697.33 589.91 703.78 599.87 709.52 610.39 714.52 621.43 718.75 632.97 722.19 644.95C725.8 662.87 711.46 668.36 697.26 658.57Q679.75 654.4 662.24 659.9 644.74 673.6 627.23 691.8 609.72 709.58 592.22 722.14 574.71 726.1 557.2 720.38 539.7 706.53 522.19 688.29 504.68 670.58 487.17 658.18 469.67 654.44 452.16 660.36 434.65 674.35 417.15 692.64 399.64 710.28 382.13 722.52 364.63 726.05 347.12 719.91 329.61 705.78 312.1 687.45 294.6 669.88 277.09 657.81 259.58 654.5 242.08 660.84 224.57 675.11 207.06 693.48 189.55 710.98 172.05 722.88 154.54 725.97 137.03 719.43C122.83 708.18 114.49 684.51 121.35 678.39Q130.35 668.48 138.88 657.26 146.53 643.45 153.64 627.96 156.9 619.23 160 609.95 162.97 600.15 165.83 589.86 168.6 579.12 171.32 567.98 174.02 556.49 176.73 544.72 179.48 532.72 182.31 520.56 185.26 508.32 188.36 496.05 191.63 483.83 195.11 471.71 198.82 459.77 202.78 448.05 207 436.61 211.5 425.49 216.27 414.74 221.31 404.37 226.62 394.43 232.17 384.92 237.95 375.84 243.92 367.21 250.06 359 256.33 351.22 262.69 343.82 269.09 336.78 275.48 330.07 281.82 323.65 294.05 311.56 305.7 299.89 316 288.44 325.31 276.81 332.8 264.45 339.18 251.42 343.89 237.01 347.77 221.68 349.32 213.47 350.74 204.95 352.07 196.13 353.38 187.02 354.73 177.66 356.18 168.06 357.79 158.25 359.62 148.27 362.95 133.04 364.16 127.93" stroke-dasharray="1 5" transform="rotate(12.12, 400, 400)" opacity="0.16"></path><path d="M367.23 140.07C370.84 124.15 388.57 115.86 397.45 125.95Q403.48 132.26 409.87 138.63 416.56 145.09 423.53 151.68 430.7 158.43 438.04 165.37 445.46 172.53 452.92 179.92 460.34 187.58 467.66 195.51 474.81 203.74 481.72 212.26 488.35 221.08 494.63 230.21 500.51 239.62 505.95 249.32 510.92 259.27 515.39 269.47 519.34 279.87 522.77 290.45 525.68 301.17 528.09 311.99 530.01 322.88 531.48 333.78 532.54 344.64 533.25 355.43 533.65 366.09 533.83 376.59 533.84 386.87 533.77 396.9 533.69 406.63 533.68 416.03 534.33 433.55 535.87 449.88 539.54 464.16 544.81 477.22 553.02 488.47 563.07 498.82 576.02 508.09 590.5 517.04 598.49 521.47 606.81 525.96 615.37 530.58 624.1 535.39 632.9 540.44 641.69 545.8 650.36 551.5 658.84 557.6 667.03 564.14 674.85 571.16 682.22 578.67 689.07 586.7 695.35 595.26 701 604.35 705.98 613.97 710.26 624.1C715.18 639.52 703.11 647.09 689.44 642.49Q672.59 644.75 655.74 655.14 638.89 671.1 622.04 688.68 605.19 703.52 588.34 711.96 571.49 711.91 554.64 703.37 537.79 688.47 520.94 670.88 504.09 654.97 487.24 644.67 470.39 642.52 453.55 649.06 436.7 662.67 419.85 679.99 403 696.72 386.15 708.73 369.3 713.05 352.45 708.6 335.6 696.49 318.75 679.72 301.9 662.43 285.05 648.9 268.2 642.48 251.35 644.76 234.5 655.18 217.65 671.15 200.8 688.72 183.95 703.55 167.1 711.97 150.25 711.89C136.58 705.53 128.31 684.81 134.64 677.48Q142.85 665.48 150.58 651.97 154.14 644.3 157.53 636.11 160.75 627.4 163.82 618.19 166.75 608.52 169.55 598.41 172.24 587.91 174.86 577.05 177.42 565.9 179.95 554.5 182.49 542.91 185.06 531.2 187.7 519.41 190.43 507.62 193.3 495.87 196.31 484.23 199.51 472.76 202.92 461.49 206.55 450.49 210.42 439.78 214.54 429.4 218.92 419.39 223.55 409.76 228.45 400.53 233.58 391.71 238.95 383.3 244.52 375.3 250.28 367.69 256.19 360.46 262.23 353.58 274.51 340.88 286.81 328.94 298.69 317.85 310.08 306.98 320.28 296.06 329.59 284.84 337.24 272.77 343.85 260 348.81 245.87 352.92 230.86 355.93 214.4 358.55 197.13 359.75 188.05 360.98 178.77 362.29 169.3 363.73 159.67 366.29 145 367.23 140.07" stroke-dasharray="8 3" transform="rotate(16.16, 400, 400)" opacity="0.20"></path><path d="M371.04 152.2C373.76 136.89 390.78 128.71 400.11 138.26Q412.78 150.23 426.33 162.53 440.37 175.39 454.46 189.01 468.16 203.58 481.02 219.2 492.65 235.93 502.72 253.78 511.03 272.66 517.47 292.41 522.06 312.83 524.98 333.64 526.51 354.55 527.04 375.23 527.05 395.34 527.06 414.59 527.62 432.69 529.24 449.45 532.37 464.73 537.38 478.46 544.51 490.7 553.84 501.58 565.32 511.31 578.74 520.2 593.74 528.62 609.84 536.96 626.5 545.66 643.07 555.13 658.95 565.77 673.54 577.91 686.33 591.81 696.91 607.61C703.01 620.21 693.12 630.45 680.03 631.1Q663.88 638.81 647.73 652.44 631.58 668.91 615.43 684.5 599.28 695.69 583.13 699.95 566.98 696.32 550.83 685.62 534.68 670.26 518.53 653.72 502.38 639.74 486.23 631.46 470.08 630.76 453.93 637.8 437.79 650.98 421.64 667.34 405.49 683.17 389.34 694.9 373.19 699.88 357.04 696.98 340.89 686.87 324.74 671.81 308.59 655.23 292.44 640.85 276.29 631.93 260.14 630.48 243.99 636.84 227.84 649.55 211.69 665.76 195.55 681.81 179.4 694.05 163.25 699.74C150.15 698.6 141.9 681.6 147.66 672.61Q155.13 658.46 161.96 642.37 168.15 624.45 173.76 604.89 178.92 583.99 183.77 562.1 188.52 539.63 193.38 517 198.57 494.63 204.3 472.9 210.77 452.15 218.1 432.63 226.37 414.54 235.6 397.95 245.73 382.87 256.64 369.21 268.11 356.79 279.92 345.38 291.77 334.7 303.35 324.42 314.38 314.22 324.58 303.79 333.72 292.84 341.66 281.13 348.32 268.48 353.71 254.77 357.94 239.96 361.22 224.06 363.81 207.18 366.06 189.44 368.34 171.04 371.04 152.2 371.04 152.2 371.04 152.2" stroke-dasharray="2 3" transform="rotate(20.200000000000003, 400, 400)" opacity="0.24"></path><path d="M375.44 164.29C377.49 149.63 393.84 141.58 403.39 150.58Q416.04 161.85 429.23 173.41 442.6 185.46 455.75 198.18 468.32 211.74 479.95 226.26 490.31 241.81 499.19 258.39 506.44 275.97 512 294.45 515.95 313.65 518.46 333.38 519.78 353.39 520.27 373.38 520.35 393.08 520.46 412.21 521.07 430.48 522.61 447.68 525.49 463.62 530.01 478.18 536.41 491.32 544.78 503.08 555.1 513.55 567.24 522.93 580.93 531.46 595.79 539.46 611.39 547.27 627.2 555.26 642.7 563.8 657.35 573.26 670.66 583.95 682.24 596.14C689.3 605.94 681.48 618.9 668.98 624.12Q653.57 635.71 638.17 650.73 622.76 666.09 607.35 678.64 591.94 685.81 576.53 686.11 561.12 679.5 545.71 667.32 530.3 652.08 514.9 636.9 499.49 624.91 484.08 618.55 468.67 619.15 453.26 626.56 437.85 639.28 422.44 654.69 407.04 669.63 391.63 681.03 376.22 686.55 360.81 685.07 345.4 676.88 329.99 663.66 314.58 648.13 299.18 633.48 283.77 622.71 268.36 618.03 252.95 620.4 237.54 629.34 222.13 643.02 206.73 658.61 191.32 672.93 175.91 683.04C163.41 686.67 155.18 673.61 160.33 662.89Q166.96 646.5 173 628.51 178.47 609.14 183.46 588.68 188.11 567.46 192.57 545.85 197.02 524.21 201.68 502.91 206.71 482.28 212.32 462.6 218.65 444.08 225.8 426.89 233.84 411.1 242.77 396.7 252.53 383.61 262.99 371.7 273.99 360.77 285.31 350.56 296.69 340.8 307.87 331.21 318.59 321.51 328.61 311.42 337.7 300.73 345.71 289.24 352.56 276.82 358.22 263.39 362.75 248.93 366.29 233.49 369.04 217.15 371.28 200.05 373.3 182.37 375.44 164.29 375.44 164.29 375.44 164.29" stroke-dasharray="2 9" transform="rotate(24.24, 400, 400)" opacity="0.28"></path><path d="M380.3 176.38C381.87 162.36 397.57 154.46 407.12 162.93Q419.49 173.52 432.1 184.36 444.62 195.61 456.72 207.46 468.1 220.04 478.48 233.48 487.62 247.85 495.37 263.19 501.63 279.47 506.4 296.63 509.77 314.57 511.91 333.11 513.05 352.06 513.52 371.19 513.66 390.26 513.86 409.02 514.51 427.21 515.99 444.6 518.62 461 522.7 476.25 528.41 490.24 535.88 502.92 545.11 514.32 556.01 524.51 568.4 533.64 581.99 541.91 596.43 549.58 611.32 556.92 626.2 564.27 640.62 571.94 654.14 580.26 666.36 589.53C674.16 596.93 668.19 612.15 656.33 620.67Q641.69 634.27 627.06 648.89 612.43 661.82 597.8 670.66 583.17 673.77 568.54 670.57 553.91 661.65 539.28 648.68 524.65 634.05 510.01 620.49 495.38 610.5 480.75 605.95 466.12 607.67 451.49 615.35 436.86 627.56 422.23 642.04 407.6 656.09 392.97 667.12 378.34 673.08 363.7 672.85 349.07 666.49 334.44 655.17 319.81 641 305.18 626.59 290.55 614.64 275.92 607.35 261.29 606.07 246.66 611.05 232.03 621.36 217.4 635.08 202.77 649.68 188.14 662.44C176.27 669.79 168.05 660.36 172.59 648.18Q178.41 630.13 183.69 610.97 188.5 590.99 192.95 570.49 197.16 549.79 201.29 529.22 205.5 509.08 209.98 489.65 214.89 471.15 220.38 453.76 226.57 437.61 233.54 422.74 241.34 409.16 249.95 396.78 259.32 385.48 269.34 375.1 279.85 365.41 290.67 356.18 301.57 347.17 312.33 338.11 322.72 328.79 332.51 318.98 341.51 308.5 349.56 297.21 356.56 285.02 362.48 271.88 367.31 257.81 371.16 242.84 374.16 227.07 376.51 210.63 379.38 185.03 380.3 176.38" stroke-dasharray="3 8" transform="rotate(28.28, 400, 400)" opacity="0.32"></path><path d="M385.42 188.43C386.75 175.07 401.77 167.36 411.12 175.29Q422.97 185.21 434.79 195.34 446.33 205.82 457.29 216.82 467.46 228.46 476.6 240.85 484.57 254.08 491.25 268.18 496.6 283.17 500.66 299 503.52 315.61 505.34 332.88 506.34 350.66 506.78 368.77 506.99 387.01 507.26 405.16 507.95 423 509.36 440.33 511.77 456.93 515.43 472.63 520.51 487.3 527.14 500.84 535.33 513.19 545.05 524.35 556.17 534.38 568.48 543.37 581.71 551.5 595.54 558.94 609.61 565.94 623.54 572.76 636.95 579.68 649.47 586.98C657.75 592.61 653.37 609.21 642.16 619.48Q628.33 633.16 614.51 645.85 600.69 655.41 586.87 660.26 573.05 659.59 559.23 653.51 545.4 643.04 531.58 629.91 517.76 616.33 503.94 604.55 490.11 596.54 476.29 593.64 462.47 596.33 448.65 604.16 434.83 615.82 421 629.38 407.18 642.57 393.36 653.18 379.54 659.46 365.72 660.34 351.89 655.69 338.07 646.28 324.25 633.68 310.43 620 296.6 607.5 282.78 598.28 268.96 593.88 255.14 595.03 241.31 601.54 227.49 612.32 213.67 625.57 199.85 639.09C188.63 648.69 180.46 642.18 184.4 629.1Q189.45 610.25 194.05 590.84 198.28 571.16 202.25 551.48 206.09 532.08 209.95 513.2 213.97 495.07 218.32 477.87 223.11 461.73 228.49 446.73 234.54 432.92 241.32 420.27 248.86 408.71 257.15 398.12 266.12 388.36 275.68 379.25 285.7 370.57 296.01 362.12 306.42 353.67 316.74 345.03 326.76 335.98 336.29 326.38 345.15 316.08 353.19 304.99 360.3 293.04 366.44 280.22 371.57 266.55 375.74 252.08 379.05 236.91 381.64 221.15 384.55 196.68 385.42 188.43" stroke-dasharray="4 5" transform="rotate(32.32, 400, 400)" opacity="0.35"></path><path d="M390.64 200.47C391.89 187.77 406.24 180.27 415.18 187.69Q426.29 196.95 437.17 206.38 447.61 216.12 457.39 226.29 466.34 237.01 474.29 248.39 481.14 260.5 486.84 273.4 491.38 287.11 494.8 301.62 497.21 316.88 498.75 332.81 499.63 349.32 500.07 366.27 500.32 383.49 500.67 400.81 501.39 418.05 502.72 435.02 504.93 451.53 508.21 467.41 512.71 482.51 518.56 496.7 525.79 509.87 534.39 521.99 544.27 533.02 555.3 542.99 567.28 551.97 579.97 560.06 593.07 567.42 606.28 574.23 619.29 580.69 631.77 587.02C640.26 591.65 637.18 608.6 626.64 618.97Q613.65 631.04 600.67 640.65 587.68 646.37 574.69 647.35 561.7 643.44 548.71 635.22 535.72 623.92 522.73 611.22 509.74 599.01 496.75 589.12 483.76 583.01 470.77 581.6 457.79 585.1 444.8 592.98 431.81 604.08 418.82 616.73 405.83 629.05 392.84 639.22 379.85 645.7 366.86 647.54 353.87 644.46 340.88 636.93 327.89 626.05 314.9 613.46 301.91 601.03 288.92 590.62 275.93 583.76 262.94 581.49 249.95 584.15 236.96 591.33 223.98 601.97 210.99 614.49C200.45 624.73 192.36 620.14 195.74 606.87Q200.08 588.21 204.07 569.5 207.8 550.99 211.38 532.89 214.93 515.4 218.58 498.69 222.45 482.89 226.68 468.1 231.38 454.37 236.65 441.71 242.55 430.09 249.13 419.44 256.41 409.66 264.36 400.6 272.93 392.11 282.03 384.01 291.54 376.12 301.34 368.25 311.24 360.22 321.1 351.86 330.72 343.03 339.95 333.6 348.62 323.47 356.6 312.58 363.78 300.89 370.09 288.41 375.49 275.17 379.99 261.24 383.65 246.68 386.55 231.62 389.73 208.32 390.64 200.47" stroke-dasharray="7 3" transform="rotate(36.36, 400, 400)" opacity="0.39"></path><path d="M395.74 212.48C397.08 200.46 410.75 193.19 419.08 200.1Q429.28 208.72 439.11 217.47 448.4 226.48 456.98 235.85 464.73 245.69 471.54 256.09 477.37 267.13 482.17 278.87 485.97 291.32 488.83 304.52 490.84 318.42 492.15 332.99 492.93 348.16 493.37 363.83 493.68 379.88 494.09 396.17 494.82 412.57 496.09 428.91 498.1 445.03 501.03 460.77 505 475.98 510.13 490.53 516.46 504.3 524.01 517.2 532.72 529.16 542.5 540.14 553.22 550.16 564.69 559.23 576.7 567.43 589.01 574.86 601.37 581.65 613.5 587.95C621.94 592.27 619.86 608.5 610.01 617.54Q597.87 626.72 585.73 632.63 573.59 634.48 561.45 632.02 549.31 625.58 537.17 616.02 525.03 604.59 512.89 592.81 500.75 582.23 488.61 574.25 476.47 569.93 464.33 569.84 452.19 573.99 440.05 581.83 427.91 592.32 415.77 604.08 403.63 615.56 391.49 625.23 379.35 631.82 367.21 634.46 355.07 632.79 342.93 627.05 330.79 617.98 318.65 606.79 306.51 594.95 294.37 584.04 282.23 575.49 270.09 570.43 257.95 569.53 245.81 572.91 233.67 580.13 221.53 590.22C211.68 599.62 203.75 595.89 206.63 583.17Q210.35 565.64 213.82 548.47 217.14 531.83 220.41 515.87 223.72 500.69 227.21 486.41 230.97 473.07 235.11 460.69 239.72 449.27 244.87 438.76 250.62 429.09 256.98 420.16 263.98 411.85 271.58 404.02 279.73 396.52 288.36 389.19 297.37 381.88 306.64 374.42 316.03 366.68 325.4 358.53 334.6 349.85 343.49 340.57 351.93 330.61 359.8 319.94 366.98 308.54 373.41 296.44 379.04 283.67 383.85 270.28 387.85 256.37 391.11 242.03 394.72 219.92 395.74 212.48" stroke-dasharray="5 8" transform="rotate(40.400000000000006, 400, 400)" opacity="0.43"></path><path d="M400.56 224.48C402.11 213.13 415.06 206.12 422.66 212.53Q431.82 220.52 440.52 228.62 448.62 236.92 456.01 245.52 462.62 254.51 468.37 263.97 473.25 273.98 477.24 284.59 480.39 295.84 482.76 307.74 484.44 320.3 485.56 333.49 486.25 347.28 486.69 361.59 487.05 376.35 487.51 391.45 488.25 406.79 489.46 422.24 491.29 437.67 493.89 452.95 497.38 467.94 501.85 482.51 507.35 496.54 513.91 509.93 521.51 522.59 530.09 534.44 539.56 545.44 549.79 555.57 560.63 564.83 571.89 573.26 583.39 580.91 594.9 587.86C603.06 592.5 601.68 607.09 592.53 613.74Q581.24 619.31 569.96 621.39 558.68 619.73 547.4 614.53 536.11 606.4 524.83 596.28 513.55 585.34 502.26 574.87 490.98 566.07 479.7 559.97 468.42 557.29 457.13 558.33 445.85 562.97 434.57 570.67 423.29 580.54 412 591.43 400.72 602.07 389.44 611.22 378.16 617.83 366.87 621.11 355.59 620.69 344.31 616.62 333.02 609.37 321.74 599.79 310.46 588.98 299.18 578.22 287.9 568.74 276.61 561.65 265.33 557.77 254.05 557.57 242.77 561.05 231.48 567.82C222.33 575.2 214.64 571.37 217.07 559.83Q220.28 544.2 223.33 529.18 226.33 514.87 229.35 501.35 232.5 488.66 235.87 476.84 239.55 465.87 243.61 455.74 248.13 446.39 253.16 437.74 258.74 429.71 264.88 422.18 271.58 415.04 278.82 408.14 286.54 401.37 294.69 394.59 303.19 387.67 311.92 380.49 320.78 372.94 329.65 364.94 338.4 356.39 346.92 347.25 355.08 337.47 362.77 327.05 369.9 315.98 376.39 304.3 382.18 292.03 387.25 279.24 391.59 266 395.22 252.4 399.37 231.5 400.56 224.48" stroke-dasharray="3 6" transform="rotate(44.44, 400, 400)" opacity="0.47"></path><path d="M404.91 236.44C406.74 225.78 418.95 219.06 425.71 224.98Q433.75 232.36 441.28 239.81 448.21 247.43 454.46 255.28 459.99 263.46 464.77 272.03 468.8 281.06 472.08 290.59 474.66 300.67 476.6 311.33 478 322.57 478.95 334.39 479.58 346.78 480.03 359.69 480.42 373.07 480.92 386.86 481.67 400.97 482.81 415.31 484.48 429.79 486.78 444.3 489.83 458.72 493.7 472.94 498.45 486.87 504.1 500.38 510.66 513.39 518.09 525.8 526.34 537.56 535.33 548.6 544.95 558.89 555.07 568.4 565.55 577.14 576.21 585.14C583.91 590.47 582.96 602.79 574.49 606.5Q564.07 608.29 553.64 606.88 543.22 602.41 532.79 595.32 522.37 586.34 511.94 576.39 501.52 566.46 491.1 557.56 480.67 550.61 470.25 546.3 459.82 545.07 449.4 547.05 438.97 552.04 428.55 559.52 418.12 568.75 407.7 578.77 397.27 588.59 386.85 597.2 376.42 603.72 366 607.5 355.57 608.16 345.15 605.62 334.72 600.14 324.3 592.28 313.87 582.84 303.45 572.77 293.02 563.1 282.6 554.8 272.17 548.73 261.74 545.49 251.32 545.42 240.89 548.51C232.43 553.15 225.08 548.53 227.16 538.59Q229.94 525.34 232.68 512.8 235.43 501.01 238.29 489.98 241.32 479.72 244.61 470.19 248.22 461.36 252.21 453.18 261.78 438.63 272.82 425.22 279.21 418.93 286.07 412.71 293.36 406.43 301.03 400.01 309 393.34 317.18 386.33 325.5 378.91 333.85 371.01 342.13 362.58 350.24 353.6 358.07 344.04 365.53 333.9 372.54 323.21 379.02 311.97 384.92 300.25 390.19 288.08 394.82 275.55 398.8 262.71 403.53 243.04 404.91 236.44" stroke-dasharray="8 5" transform="rotate(48.48, 400, 400)" opacity="0.51"></path><path d="M408.64 248.39C410.79 238.43 422.23 232.02 428.09 237.47Q434.97 244.24 441.34 251.06 447.14 258.01 452.32 265.16 460.46 280.46 466.7 296.87 468.79 305.84 470.38 315.31 471.54 325.28 472.36 335.76 472.94 346.76 473.39 358.26 473.82 370.22 474.35 382.6 475.1 395.36 476.17 408.43 477.68 421.73 479.71 435.2 482.36 448.74 485.69 462.27 489.75 475.7 494.57 488.93 500.16 501.87 506.52 514.45 513.62 526.59 521.39 538.21 529.79 549.26 538.71 559.69 548.05 569.47 557.7 578.57C564.76 584.7 564 594.49 556.22 595.2Q546.65 593.59 537.07 589.4 527.5 582.99 517.92 574.92 508.35 565.9 498.78 556.72 489.2 548.18 479.63 541.03 470.05 535.9 460.48 533.23 450.9 533.26 441.33 535.99 431.76 541.18 422.18 548.37 412.61 556.94 403.03 566.12 393.46 575.13 383.88 583.17 374.31 589.53 364.74 593.66 355.16 595.2 345.59 594.01 336.01 590.2 326.44 584.1 316.86 576.24 307.29 567.31 297.71 558.1 288.14 549.41 278.56 542 268.99 536.53 259.42 533.46 249.84 533.08C242.06 534.77 235.14 528.96 236.95 520.85Q239.42 510.15 241.93 500.12 244.52 490.76 247.26 482.04 253.61 466.63 260.92 452.71 270.21 440.54 280.81 428.92 286.87 423.2 293.34 417.4 300.18 411.43 307.35 405.22 314.79 398.69 322.43 391.78 330.19 384.45 338.01 376.66 345.79 368.38 353.45 359.59 360.91 350.29 368.08 340.48 374.9 330.2 381.3 319.47 387.22 308.33 392.63 296.83 397.48 285.02 401.76 272.97 407.06 254.56 408.64 248.39" stroke-dasharray="9 2" transform="rotate(52.52, 400, 400)" opacity="0.54"></path><path d="M411.6 260.31C414.09 251.06 424.72 244.99 429.66 249.96Q440.41 262.4 449.61 275.12 456.14 288.84 461.13 303.44 463.93 319.91 465.78 337.66 466.32 347.31 466.77 357.4 467.23 367.93 467.78 378.88 468.52 390.21 469.53 401.88 470.89 413.85 472.68 426.06 474.96 438.46 477.8 450.99 481.24 463.56 485.31 476.11 490.02 488.57 495.39 500.87 501.4 512.93 508.02 524.69 515.21 536.08 522.91 547.04 531.06 557.53 539.58 567.51C545.89 574.34 545.11 581.67 538.03 579.79Q529.3 575.56 520.56 569.53 511.82 562.15 503.08 553.96 494.35 545.59 485.61 537.65 476.87 530.74 468.13 525.38 450.66 521.9 433.18 525.13 424.44 530.38 415.71 537.21 406.97 545.11 398.23 553.47 389.49 561.69 380.76 569.13 372.02 575.26 363.28 579.6 354.54 581.84 345.8 581.81 337.07 579.51 328.33 575.11 319.59 568.94 310.85 561.46 302.11 553.24 293.38 544.88 284.64 537.01 275.9 530.21 267.16 525.01 258.42 521.78C251.34 520.78 244.93 513.74 246.53 507.42Q251.22 491.63 256.32 477.36 262.57 465.16 269.74 453.85 278.72 443.34 288.84 432.87 300.78 421.81 313.67 410.02 320.57 403.57 327.65 396.74 334.86 389.5 342.12 381.84 349.37 373.73 356.56 365.18 363.6 356.19 370.43 346.78 377 336.97 383.24 326.79 389.1 316.27 394.54 305.47 399.54 294.42 404.05 283.17 409.84 266.05 411.6 260.31" stroke-dasharray="2 4" transform="rotate(56.56, 400, 400)" opacity="0.58"></path><path d="M413.73 272.22C416.5 263.69 426.29 257.98 430.33 262.49Q438.99 273.75 446.32 285.2 451.46 297.41 455.39 310.3 457.65 324.69 459.21 340.11 459.72 348.47 460.18 357.22 460.66 366.35 461.22 375.86 461.94 385.73 462.87 395.95 464.1 406.48 465.66 417.3 467.62 428.36 470.03 439.63 472.91 451.06 476.3 462.59 480.23 474.17 484.69 485.76 489.69 497.28 495.22 508.68 501.26 519.92 507.78 530.92 514.73 541.65 522.06 552.05C527.54 559.29 526.63 564.51 520.21 560.77Q504.37 548.06 488.54 533.06 472.7 519.48 456.86 510.69 441.02 508.86 425.19 514.44 409.35 526.05 393.51 540.82 377.67 555.09 361.83 565.34 346 569.02 330.16 565.23 314.32 554.9 298.48 540.59 282.64 525.84 266.81 514.3C260.39 511.24 254.57 503.24 256.05 498.48Q260.54 486.48 265.53 475.45 271.69 465.56 278.71 456.01 287.32 446.5 296.92 436.67 308.05 425.87 319.99 414.22 326.35 407.84 332.86 401.09 339.49 393.97 346.19 386.48 352.9 378.6 359.57 370.35 366.15 361.74 372.59 352.78 378.84 343.5 384.84 333.92 390.56 324.08 395.96 314.01 400.99 303.74 405.65 293.33 411.81 277.51 413.73 272.22" stroke-dasharray="7 3" transform="rotate(60.599999999999994, 400, 400)" opacity="0.62"></path><path d="M414.94 284.09C417.92 276.3 426.85 270.98 430.04 275.03Q437 285.11 442.5 295.37 446.62 306.07 449.51 317.45 451.42 329.76 452.66 343.15 453.61 357.77 454.66 373.68 456.22 390.88 458.67 409.28 462.36 428.74 467.55 449.05 474.42 469.95 483.04 491.11 493.39 512.21 505.32 532.89C509.95 540.16 508.8 543.79 503.03 539.07Q488.79 525.93 474.54 512.84 460.3 502.49 446.06 497 431.81 497.51 417.57 503.91 403.33 514.88 389.08 528.17 374.84 541.06 360.6 550.9 346.35 555.66 332.11 554.38 317.87 547.32 303.62 535.91 289.38 522.52 275.14 509.88C269.36 505.58 264.19 497.09 265.61 493.52Q269.92 484.2 274.95 475.48 280.87 467.02 287.83 458.49 295.89 449.55 305.05 439.92 315.23 429.36 326.31 417.67 338.06 404.75 350.23 390.55 362.51 375.1 374.58 358.49 386.14 340.86 396.87 322.43 406.54 303.42 414.94 284.09 414.94 284.09 414.94 284.09" stroke-dasharray="4 1" transform="rotate(64.64, 400, 400)" opacity="0.66"></path><path d="M415.2 295.95C418.32 288.89 426.34 283.99 428.79 287.6Q434.06 296.56 438.2 305.64 441.3 315.01 443.52 324.89 445.05 335.43 446.14 346.8 447.06 359.12 448.1 372.46 449.55 386.87 451.7 402.34 454.78 418.82 459.01 436.2 464.55 454.34 471.47 473.05 479.8 492.1 489.47 511.27C493.27 518.14 491.87 520.79 486.72 515.98Q474.02 504.12 461.33 493.84 448.63 486.85 435.94 484.32 423.24 486.66 410.55 493.5 397.85 503.68 385.16 515.52 372.46 527.03 359.76 536.29 347.07 541.77 334.37 542.54 321.68 538.49 308.98 530.27 296.29 519.27 283.59 507.32C278.44 502.66 273.96 494.27 275.36 491.49Q279.65 483.94 284.64 476.43 290.43 468.73 297.12 460.6 304.72 451.83 313.23 442.26 322.57 431.76 332.62 420.23 343.24 407.65 354.22 394.03 365.36 379.41 376.41 363.9 387.13 347.64 397.31 330.76 406.72 313.47 415.2 295.95 415.2 295.95 415.2 295.95" stroke-dasharray="3 5" transform="rotate(68.68, 400, 400)" opacity="0.70"></path><path d="M414.55 307.78C417.68 301.47 424.79 297.01 426.59 300.18Q433.1 316.09 437.45 332.59 438.68 341.53 439.65 351.05 440.54 361.27 441.55 372.26 442.88 384.08 444.74 396.76 447.29 410.3 450.7 424.66 455.07 439.79 460.49 455.6 467.01 471.97 474.63 488.76C477.63 494.87 475.99 497.08 471.45 492.91Q460.26 483.56 449.06 476.51 437.87 472.69 426.68 472.61 415.48 476.27 404.29 483.2 393.1 492.47 381.9 502.87 370.71 513.01 359.52 521.56 348.32 527.38 337.13 529.72 325.93 528.25 314.74 523.17 303.54 515.15 292.35 505.26C287.82 501.02 284.04 493.26 285.45 490.89Q289.72 484.19 294.63 477.18 300.24 469.71 306.58 461.66 313.67 452.91 321.46 443.38 329.91 433.02 338.93 421.81 348.4 409.76 358.19 396.9 368.14 383.29 378.09 369.03 387.87 354.22 397.31 338.99 406.25 323.46 414.55 307.78 414.55 307.78 414.55 307.78" stroke-dasharray="5 7" transform="rotate(72.72, 400, 400)" opacity="0.73"></path><path d="M413.03 319.59C416.05 314.04 422.25 310.04 423.5 312.8Q428.12 326.51 431.31 340.56 433.18 356.13 435 373.1 436.21 382.57 437.8 392.69 439.89 403.47 442.58 414.92 445.96 427.04 450.1 439.8 455.05 453.14 460.84 467.01C463.12 472.12 461.3 474.29 457.35 471.23Q447.62 465 437.88 461.14 428.15 460.04 418.42 461.81 408.68 466.28 398.95 472.98 389.21 481.24 379.48 490.21 369.74 499 360.01 506.71 350.27 512.55 340.53 515.94 330.8 516.52 321.06 514.24 311.33 509.34 301.59 502.3C297.65 499 294.58 492.33 295.97 490.09Q300.2 483.6 304.97 476.66 310.31 469.19 316.23 461.12 322.72 452.42 329.75 443.06 337.28 433.03 345.24 422.35 353.55 411.05 362.13 399.16 370.87 386.75 379.66 373.88 388.39 360.64 396.93 347.12 409.11 326.5 413.03 319.59" stroke-dasharray="2 6" transform="rotate(76.76, 400, 400)" opacity="0.77"></path><path d="M410.73 331.38C413.53 326.59 418.8 323.09 419.65 325.42Q422.83 337 425.16 348.76 426.78 361.42 428.45 374.97 431.03 390.46 434.62 407.34 437.17 416.64 440.24 426.44 443.87 436.74 448.09 447.53C449.76 451.52 447.86 453.85 444.48 452.07Q427.86 448.92 411.23 451.84 402.92 456.61 394.61 462.81 386.3 469.97 377.98 477.56 369.67 485.02 361.36 491.77 353.04 497.33 344.73 501.27 328.1 502.25 311.48 497.2C308.1 495.1 305.7 489.77 307.08 487.53Q315.93 473.77 326.07 458.59 331.88 450.13 338.09 441.18 344.65 431.75 351.54 421.86 358.69 411.54 366.05 400.84 373.55 389.8 381.13 378.47 388.71 366.9 396.22 355.16 407.16 337.34 410.73 331.38" stroke-dasharray="5 4" transform="rotate(80.80000000000001, 400, 400)" opacity="0.81"></path><path d="M407.79 343.15C410.25 339.13 414.61 336.15 415.15 338.08Q417.38 347.59 419.01 357.19 420.4 367.16 421.92 377.8 423.94 389.35 426.83 402.03 430.89 416.02 436.37 431.4C437.52 434.32 435.65 436.82 432.84 436.22Q419 436.69 405.17 442.58 391.33 452.68 377.49 464.91 363.66 476.77 349.82 485.83 335.98 490.22 322.14 489.04C319.33 488.12 317.53 484.18 318.84 481.93Q326.87 468.57 336.11 453.8 346.48 437.69 357.83 420.35 369.94 401.98 382.52 382.81 395.25 363.1 407.79 343.15 407.79 343.15 407.79 343.15" stroke-dasharray="4 0" transform="rotate(84.84, 400, 400)" opacity="0.85"></path><path d="M404.35 354.89C406.38 351.67 409.84 349.23 410.18 350.75Q412.86 365.89 415.38 381.49 417.01 389.93 419.15 398.96 421.96 408.7 425.59 419.23C426.33 421.21 424.61 423.72 422.37 423.99Q411.28 427.42 400.2 433.89 389.11 442.55 378.03 452.26 366.94 461.74 355.86 469.72 344.77 475.17 333.69 477.34C331.44 477.35 330.17 474.69 331.36 472.54Q338.47 460.07 346.35 446.75 354.93 432.67 364.13 417.92 373.82 402.62 383.87 386.92 394.1 370.96 404.35 354.89 404.35 354.89 404.35 354.89" stroke-dasharray="8 1" transform="rotate(88.88, 400, 400)" opacity="0.89"></path><path d="M400.57 366.62C402.14 364.18 404.69 362.32 404.91 363.45Q406.84 374.62 408.84 385.9 411.75 398.01 415.63 410.99C416.08 412.24 414.64 414.48 412.95 415.2Q404.6 419.73 396.26 425.61 387.91 432.41 379.57 439.61 371.22 446.68 362.87 453.09 354.53 458.37 346.18 462.11C344.49 462.66 343.67 461.03 344.67 459.17Q350.52 448.57 356.79 437.59 363.44 426.27 370.42 414.66 377.69 402.83 385.19 390.83 396.71 372.68 400.57 366.62" stroke-dasharray="2 7" transform="rotate(92.92, 400, 400)" opacity="0.92"></path><path d="M396.68 378.31C397.72 376.69 399.4 375.42 399.54 376.16Q402.48 390.93 406.38 406.08C406.61 406.79 405.56 408.49 404.42 409.23Q393.23 417.59 382.03 426.96 370.84 436.1 359.64 443.8C358.5 444.47 358.04 443.59 358.77 442.23Q367.42 426.68 376.71 410.75 386.51 394.57 396.68 378.31 396.68 378.31 396.68 378.31" stroke-dasharray="1 0" transform="rotate(96.96, 400, 400)" opacity="0.96"></path></g></svg>