<svg xmlns="http://www.w3.org/2000/svg" version="1.1" xmlns:xlink="http://www.w3.org/1999/xlink" xmlns:svgjs="http://svgjs.dev/svgjs" width="2000" height="1247" viewBox="0 0 2000 1247"><g transform="matrix(1,0,0,1,-1.2121212121212466,0.504858299595071)"><svg viewBox="0 0 396 247" data-background-color="#ffffff" preserveAspectRatio="xMidYMid meet" height="1247" width="2000" xmlns="http://www.w3.org/2000/svg" xmlns:xlink="http://www.w3.org/1999/xlink"><g id="tight-bounds" transform="matrix(1,0,0,1,0.2400000000000091,-0.09999999999999432)"><svg viewBox="0 0 395.52 247.2" height="247.2" width="395.52"><g><svg></svg></g><g><svg viewBox="0 0 395.52 247.2" height="247.2" width="395.52"><g transform="matrix(1,0,0,1,111.1017891373802,37.08)"><svg viewBox="0 0 173.3164217252396 173.04" height="173.04" width="173.3164217252396"><g><svg viewBox="0 0 173.3164217252396 173.04" height="173.04" width="173.3164217252396"><g><svg viewBox="0 0 173.3164217252396 173.04" height="173.04" width="173.3164217252396"><g><svg viewBox="0 0 173.3164217252396 173.04" height="173.04" width="173.3164217252396"><g id="textblocktransform"><svg viewBox="0 0 173.3164217252396 173.04" height="173.04" width="173.3164217252396" id="textblock"><g><svg viewBox="0 0 173.3164217252396 173.04" height="173.04" width="173.3164217252396"><g transform="matrix(1,0,0,1,0,0)"><svg width="173.3164217252396" viewBox="3 -30.489999771118164 30.619998931884766 30.559999465942383" height="173.04" data-palette-color="#ee3e38"><path d="M5.62 0.07Q3 0.07 3-1.29L3-1.29 3-29.08Q3-29.79 3.64-30.14 4.27-30.49 5.62-30.49L5.62-30.49 7.91-30.49Q9.99-30.49 10.62-29.3L10.62-29.3 17.92-16.33 18.29-15.7 18.65-16.46 26-29.3Q26.66-30.49 28.74-30.49L28.74-30.49 31.01-30.49Q33.62-30.49 33.62-29.08L33.62-29.08 33.62-1.29Q33.62 0.07 31.01 0.07L31.01 0.07 29.74 0.07Q27.12 0.07 27.12-1.29L27.12-1.29 27.12-19.29 26.95-19.34 20.65-8.08Q20.09-7.25 18.92-7.25L18.92-7.25 17.68-7.25Q17.07-7.25 16.65-7.46 16.24-7.67 15.94-8.08L15.94-8.08 9.62-19.34 9.45-19.29 9.45-1.29Q9.45 0.07 6.86 0.07L6.86 0.07 5.62 0.07Z" opacity="1" transform="matrix(1,0,0,1,0,0)" fill="#ee3e38" class="undefined-text-0" data-fill-palette-color="primary" id="text-0"></path></svg></g></svg></g></svg></g></svg></g></svg></g></svg></g></svg></g><g mask="url(#3b9ff658-7163-4545-8939-f8338a18f852)"><g transform="matrix(2.8958804137165823, 0, 0, 2.8958804137165823, 62.92201538115117, 1)"><svg xmlns="http://www.w3.org/2000/svg" xmlns:xlink="http://www.w3.org/1999/xlink" version="1.1" x="0" y="0" viewBox="3.875999689102173 7.681999683380127 93.1240005493164 84.67200469970703" enable-background="new 0 0 100 100" xml:space="preserve" height="84.67200469970703" width="93.1240005493164" class="icon-none" data-fill-palette-color="accent" id="none"><path fill="#ee3e38" d="M97 41.602c0-5.333-2.849-10.279-7.519-13.193-2.479-10.137-12.043-17.363-23.244-17.363-2.695 0-5.326 0.418-7.846 1.246-3.125-2.951-7.332-4.61-11.823-4.61-5.188 0-10.109 2.315-13.257 6.145-0.698-0.083-1.4-0.125-2.1-0.125-7.604 0-14.109 4.734-16.121 11.486C8.406 27.376 3.876 33.296 3.876 40.113c0 2.021 0.416 4.037 1.213 5.907-0.796 1.871-1.213 3.887-1.213 5.906 0 5.863 3.365 11.158 8.814 13.926 3.128 2.945 7.415 4.625 11.841 4.625 2.827 0 5.538-0.649 7.97-1.898 3.156 3.456 7.816 5.521 12.716 5.521 3.055 0 5.968-0.757 8.542-2.205 2.85 2.088 6.253 3.433 9.84 3.873 6.047 6.068 10.688 13.907 10.734 13.989l1.525 2.597 7.658-5.49-4.263-12.219c2.401-1.112 4.388-2.931 5.646-5.211 5.231-2.776 8.562-8.09 8.562-13.795 0-1.279-0.161-2.541-0.479-3.769C95.554 49.024 97 45.37 97 41.602zM81.709 64.877l-0.954 0.436-0.422 0.961c-0.885 2.013-2.801 3.484-5.122 3.938l-3.116 0.607 4.064 11.649c-2.221-3.209-5.547-7.592-9.415-11.321l-0.716-0.689-0.99-0.073c-2.365-0.175-4.633-0.886-6.625-2.028l7.918-6.258c2.062-1.631 4.841-2.341 5.777-2.09l3.629 0.965 1.363-5.136-3.63-0.964c-3.19-0.85-7.758 0.943-10.434 3.057l-8.892 7.025-0.021-0.02-1.822 1.355c-2.026 1.51-4.352 2.309-6.962 2.309-3.727 0-7.172-1.735-9.172-4.551v-2.924-1.223-3.819c0-2.132 0.992-4.168 1.577-4.521l2.969-1.834-2.88-4.705-3.045 1.832c-1.425 0.861-2.527 2.385-3.262 4.093-0.618-0.57-1.285-1.078-1.982-1.501l-8.907-5.399-2.853 4.703 8.78 5.399c2.133 1.293 3.603 4.104 3.603 5.752v1.223 2.316c-2 1.002-3.648 1.535-5.762 1.535-3.142 0-6.104-1.222-8.232-3.349l-0.305-0.336-0.414-0.203c-3.76-1.784-6.088-5.296-6.088-9.164 0-1.609 0.401-3.153 1.184-4.591l0.718-1.316-0.716-1.315c-0.782-1.435-1.179-2.979-1.179-4.59 0-4.781 3.54-8.902 8.607-10.021l1.8-0.398 0.316-1.816c0.875-5.028 5.548-8.677 11.113-8.677 0.907 0 1.819 0.102 2.71 0.304l1.885 0.426 1.04-1.629c2.015-3.158 5.741-5.12 9.723-5.12 2.58 0 5.006 0.797 6.97 2.228l-2.045 1.908-0.035-0.038-1.433 1.336c-1.929 1.476-4.292 2.251-5.193 2.115l-3.899-0.587-0.817 5.439 3.896 0.586c0.13 0.02 0.269 0.018 0.402 0.029-0.629 1.965-0.855 4.06-0.537 5.913l0.897 5.226 5.421-0.932-0.897-5.225c-0.338-1.969 0.657-4.978 2.091-6.313l2.254-2.104c0.31-0.245 0.604-0.493 0.873-0.743l4.316-4.027c2.345-0.956 4.834-1.447 7.402-1.447 9.009 0 16.623 5.942 18.106 14.129l0.24 1.328 1.196 0.622c3.527 1.834 5.72 5.274 5.72 8.978 0 1.94-0.591 3.786-1.677 5.392l-0.854-0.854h0.001l-3.563-3.563c-1.549-1.548-3.133-4.974-3.393-7.33l-0.588-5.353-5.279 0.58 0.588 5.353c0.168 1.535 0.688 3.273 1.399 4.947-0.353-0.043-0.705-0.09-1.044-0.106L65.14 40.101l-0.253 5.306 11.953 0.566c2.446 0.116 6.026 1.574 7.513 3.059l2.834 2.835 0.103 0.255c0.446 1.125 0.673 2.31 0.673 3.517C87.961 59.578 85.565 63.118 81.709 64.877z" data-fill-palette-color="accent"></path></svg></g></g></svg></g><defs><mask id="4e633be3-e68d-43b3-8b2e-071c34776cfc"><rect width="640" height="400" fill="white"></rect><rect width="181.65497289586304" height="254.74118208" fill="black" y="-3.7705910399999993" x="106.93251355206847" id="transform-me"></rect></mask><mask id="b259a532-b41c-4926-8b76-65922c3e810d"><rect width="640" height="400" fill="white"></rect><rect width="181.65497289586304" height="254.74118208" fill="black" y="-3.7705910399999993" x="106.93251355206847" id="transform-me"></rect></mask><mask id="48b37675-51fc-4a82-aaed-29f6026fb397"><rect width="640" height="400" fill="white"></rect><rect width="267.71171428571427" height="254.74118208" fill="black" y="-3.7705910399999993" x="63.90414285714286" id="transform-me"></rect></mask><mask id="b1041d92-1c6f-4f55-b3f9-04b1f72df918"><rect width="640" height="400" fill="white"></rect><rect width="190.64806389776356" height="254.74118208" fill="black" y="-3.7705910399999993" x="102.43596805111821" id="transform-me"></rect></mask><mask id="3b9ff658-7163-4545-8939-f8338a18f852"><rect width="640" height="400" fill="white"></rect><rect width="190.64806389776356" height="254.74118208" fill="black" y="-3.7705910399999993" x="102.43596805111821" id="transform-me"></rect></mask></defs></svg><rect width="395.52" height="247.2" fill="none" stroke="none" visibility="hidden"></rect></g></svg></g></svg>